<svg width="21" height="25" viewBox="0 0 21 25" fill="none" xmlns="http://www.w3.org/2000/svg">
<g id="Icon">
<path id="Vector" d="M12.3631 22.4271C12.1737 22.7504 11.902 23.0187 11.575 23.2052C11.248 23.3918 10.8773 23.49 10.5 23.49C10.1227 23.49 9.75195 23.3918 9.42497 23.2052C9.098 23.0187 8.82624 22.7504 8.63691 22.4271M16.9615 8.5604C16.9615 6.86302 16.2808 5.23515 15.069 4.03492C13.8572 2.83468 12.2137 2.1604 10.5 2.1604C8.78628 2.1604 7.14276 2.83468 5.93099 4.03492C4.71922 5.23515 4.03845 6.86302 4.03845 8.5604C4.03845 16.0271 0.807678 18.1604 0.807678 18.1604H20.1923C20.1923 18.1604 16.9615 16.0271 16.9615 8.5604Z" stroke="white" stroke-opacity="0.38" stroke-linecap="round" stroke-linejoin="round"/>
</g>
</svg>
