<svg width="21" height="25" viewBox="0 0 21 25" fill="none" xmlns="http://www.w3.org/2000/svg">
<g id="Icon">
<path id="Vector" d="M12.3631 22.327C12.1737 22.6503 11.902 22.9186 11.575 23.1051C11.248 23.2917 10.8773 23.3899 10.5 23.3899C10.1227 23.3899 9.75195 23.2917 9.42497 23.1051C9.098 22.9186 8.82624 22.6503 8.63691 22.327M16.9615 8.4603C16.9615 6.76292 16.2808 5.13505 15.069 3.93482C13.8572 2.73459 12.2137 2.0603 10.5 2.0603C8.78628 2.0603 7.14276 2.73459 5.93099 3.93482C4.71922 5.13505 4.03845 6.76292 4.03845 8.4603C4.03845 15.927 0.807678 18.0603 0.807678 18.0603H20.1923C20.1923 18.0603 16.9615 15.927 16.9615 8.4603Z" stroke="#229544" stroke-linecap="round" stroke-linejoin="round"/>
</g>
</svg>
